<?xml version="1.0" standalone="no"?><!DOCTYPE svg PUBLIC "-//W3C//DTD SVG 1.1//EN" "http://www.w3.org/Graphics/SVG/1.1/DTD/svg11.dtd"><svg t="1682641320215" class="icon" viewBox="0 0 1024 1024" version="1.1" xmlns="http://www.w3.org/2000/svg" p-id="32608" width="40" height="40" xmlns:xlink="http://www.w3.org/1999/xlink"><path d="M2367.99999979 1024H1343.99999979V0h1024z" fill="#FFFFFF" p-id="32609"></path><path d="M938.422857 584.32c-9.179429-36.187429-30.72-62.72-63.451428-80.091429-12.580571-6.674286-25.782857-12.251429-38.528-18.651428-5.942857-2.962286-11.52-6.656-17.225143-10.130286-1.243429-0.731429-2.230857-1.901714-3.968-3.437714a152.868571 152.868571 0 0 0 73.636571-30.592l-4.370286 2.066286c-17.92 8.667429-35.931429 17.024-55.826285 20.077714-4.900571 0.768-9.892571 0.768-14.811429 1.408-4.48 0.585143-6.765714-1.554286-8.502857-5.412572-6.473143-14.336-5.302857-28.836571-1.115429-43.355428 1.645714-5.668571 3.876571-11.154286 6.034286-16.658286 27.428571-69.851429 4.205714-138.514286-59.904-177.188571a227.730286 227.730286 0 0 0-49.993143-22.473143 96.548571 96.548571 0 0 1-47.981714-33.060572 792.868571 792.868571 0 0 1-29.184-39.899428c-33.974857-49.005714-80.475429-77.952-138.971429-87.771429-8.064-1.371429-16.237714-2.194286-24.356571-3.254857h-35.401143c-1.206857 0.256-2.377143 0.658286-3.602286 0.731429a322.925714 322.925714 0 0 0-97.554285 22.637714c-34.962286 13.988571-66.998857 32.694857-93.074286 60.434286-14.811429 15.744-26.294857 33.536-30.829714 55.094857a76.726857 76.726857 0 0 0 0.914285 36.315428c1.792-5.778286 3.108571-10.550857 4.772572-15.213714 13.897143-38.966857 41.216-65.664 77.257143-84.059428 35.273143-18.011429 73.106286-25.508571 112.402285-26.038858 28.105143-0.365714 55.771429 3.017143 82.505143 12.251429 29.696 10.24 54.363429 28.342857 76.708572 49.956571 17.974857 17.426286 35.803429 34.998857 53.668571 52.534858 0.109714 0.109714 0 0.457143 0 0.548571-10.788571-5.028571-21.394286-10.477714-32.402286-14.976A377.417143 377.417143 0 0 1 499.035429 144.457143c-40.118857-28.525714-85.12-41.307429-134.363429-38.272-26.934857 1.664-53.010286 7.862857-79.104 14.336-14.189714 3.510857-25.362286 11.922286-37.942857 18.834286 1.225143 2.432 2.157714 4.553143 3.291428 6.546285 7.990857 14.043429 19.693714 24.429714 33.188572 32.786286 35.474286 21.942857 74.861714 32.128 115.785143 36.571429 25.910857 2.834286 52.041143 3.419429 77.988571 5.924571 34.212571 3.309714 67.949714 9.453714 100.352 21.467429 21.430857 7.936 41.526857 18.249143 57.472 35.254857 3.492571 3.730286 6.509714 7.954286 9.728 11.977143-7.515429-3.017143-14.262857-6.784-21.321143-9.874286-32-14.025143-65.956571-20.681143-100.150857-26.185143-26.806857-4.315429-53.76-7.808-80.512-12.397714-25.051429-4.315429-49.92-9.874286-74.934857-14.354286-21.229714-3.803429-42.550857-7.113143-62.994286-14.354286-29.458286-10.422857-51.675429-28.617143-62.793143-58.770285-0.182857-0.475429-0.694857-0.841143-1.243428-1.499429-4.150857 5.833143-7.826286 11.648-12.196572 16.877714-3.730286 4.48-4.388571 9.179429-3.803428 14.72 2.468571 22.491429 13.988571 39.936 30.116571 54.784 17.627429 16.201143 38.198857 27.684571 60.16 36.699429 34.742857 14.244571 70.582857 23.716571 108.416 24.045714 17.078857 0.146286 34.157714 0.402286 51.218286 1.042286 27.666286 1.024 55.131429 3.657143 81.92 11.190857 48.896 13.787429 83.364571 43.337143 98.706286 92.745143 5.613714 18.066286 9.216 36.790857 13.458285 55.296 3.291429 14.208 4.626286 28.909714 11.52 42.166857 11.483429 22.125714 28.928 38.308571 50.011429 50.889143 5.376 3.2 11.008 5.979429 17.444571 9.453714-20.845714-4.297143-37.924571-13.275429-51.821714-28.288-14.884571-16.091429-24.594286-35.072-31.634286-55.570286-7.076571-20.589714-12.964571-41.636571-20.845714-61.915428-18.340571-47.286857-51.017143-78.774857-101.613714-89.581714-25.307429-5.394286-51.017143-6.948571-76.708572-8.777143-25.837714-1.865143-51.876571-2.761143-77.403428-6.765715-74.24-11.629714-131.712-49.865143-172.342857-113.408-0.512-0.786286-1.152-1.481143-2.413715-3.108571 0.365714 2.377143 0.475429 3.584 0.731429 4.772571 3.84 18.212571 12.982857 33.664 25.252571 47.195429 29.147429 32.109714 64.713143 53.924571 106.331429 65.883429 34.742857 9.984 70.4 13.129143 106.24 14.939428 28.233143 1.426286 56.393143 3.2 84.297143 8.283429 43.154286 7.862857 75.922286 30.08 97.097143 68.937143 0.621714 1.115429 1.060571 2.322286 1.590857 3.492571a3.346286 3.346286 0 0 1-2.011429-1.536c-20.004571-28.708571-46.756571-47.908571-80.566857-56.685714-30.756571-7.990857-62.317714-8.777143-93.842286-9.197715-23.277714-0.329143-46.573714 0.237714-69.851428-0.512-17.115429-0.548571-34.304-3.072-49.444572-11.648-20.790857-11.776-41.6-23.734857-61.184-37.376-30.976-21.540571-54.784-49.517714-68.662857-85.229714-0.182857-0.493714-0.603429-0.896-1.536-2.194286-0.402286 8.923429-1.828571 16.969143-0.896 24.722286 2.432 19.803429 11.593143 36.973714 23.442286 52.699429 20.882286 27.666286 48.310857 47.232 78.354286 63.542857 2.450286 1.334857 5.156571 2.395429 7.222857 4.205714 17.499429 15.305143 37.741714 26.112 58.404571 36.315429 3.986286 1.956571 8.173714 4.205714 11.190857 7.350857 8.045714 8.374857 16.786286 16.493714 22.985143 26.148571 23.296 36.278857 31.488 75.940571 24.667429 118.802286-2.925714 18.432-4.882286 37.12-2.486857 55.862857 2.907429 22.893714 12.617143 41.581714 33.206857 53.284572 3.017143 1.700571 3.968 3.236571 3.620571 6.802285-2.596571 26.514286 3.017143 50.614857 22.144 70.162286 21.394286 21.851429 47.634286 33.060571 78.025143 33.243429 39.936 0.237714 64.768-24.612571 64.274286-63.268572-0.219429-18.029714-19.565714-36.169143-37.485714-35.145143-9.545143 0.548571-15.506286 7.826286-13.531429 16.877715 0.493714-0.987429 0.859429-1.792 1.28-2.596572 1.737143-3.364571 3.547429-7.04 7.954286-6.838857 4.516571 0.201143 6.546286 3.913143 7.936 7.606857 2.706286 7.259429 3.108571 14.72 0 21.906286-8.027429 18.56-23.186286 27.483429-42.331429 30.098286-18.797714 2.56-31.890286-6.601143-41.325714-22.034286-8.557714-14.061714-10.550857-29.696-10.587429-45.824 0-3.821714 0.914286-5.650286 5.010286-6.656 10.788571-2.688 20.406857-7.954286 29.202286-14.793143-10.642286 4.662857-21.394286 8.649143-34.377143 9.106286 2.651429-13.513143 4.352-26.514286 7.826286-39.003429 6.454857-23.222857 14.262857-46.061714 20.955428-69.211428 13.421714-46.409143 5.412571-87.808-29.549714-122.569143-2.852571-2.816-5.851429-5.485714-8.777143-8.228572a5.595429 5.595429 0 0 1 3.620571 0.402286c11.026286 5.302857 22.125714 10.550857 32.987429 16.182857 1.828571 0.950857 3.474286 3.529143 3.931429 5.632 2.834286 13.385143 5.065143 26.916571 7.917714 40.301714 7.954286 37.449143 18.962286 73.856 37.12 107.757715 16.091429 29.952 35.090286 57.508571 64.457143 75.995428 15.616 9.856 31.488 19.382857 47.762285 28.086857 22.052571 11.757714 44.891429 22.052571 66.834286 33.974858 23.643429 12.818286 35.163429 38.107429 31.085714 64.731428-3.949714 25.746286-16.384 47.067429-35.328 64.164572-29.805714 26.861714-60.342857 52.882286-90.697142 79.104-2.870857 2.468571-3.364571 4.608-2.486858 7.972571 4.297143 16.420571 14.628571 27.611429 29.897143 34.157714 6.034286 2.596571 12.617143 3.913143 18.962286 5.814857h19.565714c9.965714-2.816 19.949714-5.504 29.842286-8.502857 3.053714-0.914286 5.851429-2.633143 9.6-4.352-3.968-1.462857-7.131429-2.523429-10.24-3.821714-18.230857-7.588571-24.210286-20.790857-17.627429-39.497143 5.577143-15.817143 15.798857-28.781714 26.148572-41.654857 10.477714-13.092571 21.028571-26.148571 31.049143-39.588571 4.333714-5.814857 7.588571-12.489143 10.861714-19.017143 1.462857-2.944 3.053714-3.84 6.308571-3.821715 32.493714 0.365714 59.611429-11.264 80.530286-36.589714 11.008-13.348571 15.085714-29.604571 17.773714-46.025143 1.718857-10.477714 1.005714-21.339429 1.499429-32a7.552 7.552 0 0 1 1.316571-4.187428c14.134857-17.572571 22.070857-37.668571 24.576-60.032 0.128-1.060571 0.530286-2.084571 0.804572-3.108572v-22.454857c-1.353143-7.314286-2.285714-14.72-4.114286-21.924571zM498.761143 496.091429a187.428571 187.428571 0 0 1-7.332572 55.387428c-8.137143 28.836571-16.768 57.563429-25.289142 86.637714-8.137143-2.925714-14.628571-8.557714-18.962286-16.457142-5.778286-10.550857-8.210286-21.942857-10.020572-33.536-3.273143-20.736-1.115429-41.179429 2.358858-61.750858 4.315429-25.526857 4.717714-51.126857-3.072-76.342857a100.827429 100.827429 0 0 0-28.525715-44.946285c-1.170286-1.097143-2.340571-2.194286-3.492571-3.328-0.109714-0.109714-0.146286-0.274286-0.713143-1.353143 23.241143 10.24 45.366857 20.169143 64.310857 35.218285 20.041143 15.908571 30.171429 35.949714 30.72 60.470858z m144.530286-266.916572c-0.786286-0.749714-1.590857-1.481143-1.865143-3.108571 10.002286 5.577143 20.662857 10.185143 29.915428 16.914285 33.499429 24.411429 58.514286 56.448 74.752 95.780572 4.553143 10.971429 6.656 22.564571 6.217143 34.651428-0.896 24.484571-1.609143 48.969143-2.413714 74.532572-9.618286-9.508571-16.694857-20.041143-19.858286-32.493714a473.270857 473.270857 0 0 1-9.142857-46.939429c-3.474286-23.222857-7.186286-46.336-19.657143-66.432-16.566857-26.642286-35.291429-51.529143-57.947428-72.905143zM548.571429 461.421714l-2.230858-13.494857c2.304 1.755429 3.748571 2.797714 5.12 3.913143 24.630857 19.931429 40.411429 45.348571 51.565715 73.636571 11.556571 29.366857 26.697143 56.813714 50.176 79.542858 6.509714 6.290286 13.750857 11.922286 19.931428 17.225142-64.731429-36.992-112.310857-86.802286-124.580571-160.822857z m126.829714 49.810286c-6.930286-20.571429-12.141714-41.728-18.121143-62.610286l1.334857-0.694857c4.022857 11.958857 7.68 24.045714 12.16 35.803429 3.949714 10.349714 8.265143 20.644571 13.348572 30.445714 14.774857 28.397714 37.248 46.646857 68.571428 53.540571 18.706286 4.132571 37.248 9.051429 55.570286 14.738286 14.537143 4.534857 27.611429 12.397714 39.186286 23.954286-9.088-2.102857-17.334857-4.425143-25.728-5.851429-16.822857-2.907429-33.828571-4.754286-50.596572-8.045714-46.500571-9.088-80.018286-34.742857-95.725714-81.28z m172.050286 95.177143c7.021714 4.297143 12.214857 9.508571 15.835428 15.835428l-15.835428-15.835428z m-37.046858 206.006857c0.548571-1.883429 0.987429-3.456 1.499429-4.973714 11.355429-33.993143 5.924571-65.901714-11.885714-96.146286-5.997714-10.185143-14.957714-17.554286-25.051429-23.241143-18.852571-10.697143-38.034286-20.864-56.923428-31.506286-9.837714-5.522286-19.382857-11.574857-29.074286-17.389714l0.768-1.060571c19.2 10.861714 39.917714 17.371429 61.165714 22.4 15.36 3.620571 30.811429 6.802286 46.043429 10.788571 18.998857 4.955429 36.534857 12.763429 49.554285 28.489143 6.345143 7.643429 11.099429 16.109714 14.098286 25.618286 0.841143 2.651429 0.438857 4.278857-2.230857 5.577143-7.204571 3.529143-14.299429 7.277714-21.248 11.611428l25.088-7.021714c6.820571 29.549714-19.254857 68.589714-51.803429 76.854857z m107.044572-144.64c-0.438857 0.914286-0.987429 1.755429-1.133714 2.011429-6.363429-10.166857-12.379429-20.662857-19.273143-30.482286-3.913143-5.595429-9.325714-10.057143-13.933715-15.158857-1.042286-1.152-2.230857-2.688-2.340571-4.114286-1.974857-28.196571-16.804571-48.402286-37.979429-64.64-18.340571-14.043429-38.930286-23.753143-60.562285-30.866286-14.445714-4.754286-25.581714-13.531429-34.852572-25.380571-14.281143-18.267429-24.484571-38.985143-33.846857-60.16-3.218286-7.259429-5.833143-14.811429-8.704-22.235429l0.987429-0.512c0.530286 0.585143 1.133714 1.133714 1.572571 1.773715a114.907429 114.907429 0 0 0 46.756572 39.972571c1.682286 0.786286 3.730286 2.505143 4.132571 4.169143 8.064 33.334857 29.056 55.990857 57.764571 71.296 13.531429 7.222857 28.525714 11.629714 42.898286 17.170286 8.32 3.2 16.877714 5.796571 25.124572 9.197714 24.265143 10.038857 36.772571 29.677714 41.325714 55.186286 3.309714 18.395429 0.128 36.022857-7.936 52.772571zM132.022857 500.516571c10.166857-3.401143 20.534857-6.217143 30.610286-9.874285 18.157714-6.528 28.525714-20.150857 33.188571-38.546286 2.596571-10.331429 2.285714-20.736 0.347429-31.140571-3.565714-19.072-11.355429-36.626286-20.644572-53.394286-15.853714-28.617143-17.206857-58.368-8.850285-89.270857 5.485714-20.315429 14.738286-39.058286 24.027428-57.782857 1.645714-3.328 2.925714-6.857143 4.370286-10.276572-1.188571-0.073143-1.718857 0.219429-2.048 0.658286-13.824 18.578286-26.331429 37.942857-34.651429 59.776-7.936 20.809143-11.117714 42.185143-7.168 64.365714 3.053714 17.078857 10.550857 32.384 18.011429 47.817143 5.12 10.642286 10.715429 21.449143 13.403429 32.822857 5.942857 25.051429-2.889143 43.702857-25.051429 54.345143-6.674286 3.2-13.659429 5.76-20.534857 8.521143-9.344 3.766857-19.017143 6.875429-28.050286 11.282286-11.373714 5.558857-18.505143 14.994286-21.302857 27.574857-0.146286 0.731429-0.603429 1.371429-0.914286 2.066285v20.937143l3.931429 18.468572c0.987429-1.883429 0.914286-3.620571 0.987428-5.339429 0.548571-11.721143 2.797714-22.875429 9.654858-32.786286 7.588571-10.934857 18.706286-16.219429 30.683428-20.224z" fill="#FF7E7E" p-id="32610"></path><path d="M588.8 812.8c-5.357714-5.796571-10.733714-12.013714-17.005714-16.237714-70.966857-47.908571-145.115429-56.649143-222.372572-23.332572-4.022857 1.737143-7.094857 1.718857-10.422857-1.225143-5.705143-5.065143-11.52-10.002286-17.298286-14.994285-22.528-19.510857-44.891429-39.296-67.693714-58.331429-6.144-5.156571-13.531429-8.466286-20.571428-11.958857-4.845714-2.413714-8.850286-0.731429-12.525715 4.443429-21.668571 30.354286-28.580571 64-18.998857 102.418285 4.388571 17.554286 7.424 35.657143 9.874286 53.723429 1.152 8.594286-0.548571 17.682286-0.969143 26.861714 3.382857-0.987429 6.802286-2.249143 10.294857-2.925714 7.515429-1.499429 15.195429-4.425143 22.601143-3.748572 42.038857 3.84 83.510857 11.849143 123.922286 26.276572 34.395429 12.288 67.364571 28.379429 95.323428 55.497143 11.721143 11.373714 21.888 24.941714 32.731429 37.485714 5.266286-8.082286 11.172571-17.334857 17.243428-26.459429 19.821714-29.824 40.027429-59.337143 59.410286-89.545142 7.424-11.574857 13.220571-24.630857 19.437714-37.248a17.517714 17.517714 0 0 0-2.962285-20.699429zM281.929143 551.222857c16.914286 5.065143 33.590857 10.825143 50.468571 16a10.349714 10.349714 0 0 0 7.003429-0.914286c16.201143-8.411429 26.971429-21.394286 33.334857-37.961142 0.512-1.316571 1.097143-2.614857 1.682286-3.913143l1.536 0.237714-2.468572 45.312c13.092571-0.987429 22.820571-7.588571 26.733715-19.017143 5.997714-17.554286 3.053714-35.254857 0.457142-53.558857-9.252571 6.893714-17.737143 13.458286-26.496 19.693714-13.220571 9.453714-27.373714 17.170286-43.812571 19.986286-12.470857 2.121143-23.734857-6.217143-24.082286-18.468571-0.237714-8.502857-3.291429-13.677714-12.16-15.963429-6.473143-1.682286-8.886857-6.107429-8.612571-12.617143 0.054857-1.517714 0.329143-3.017143 0.548571-5.046857-0.950857-0.365714-1.645714-0.658286-2.377143-0.914286-9.197714-3.291429-12.617143-8.630857-11.501714-18.011428 0.219429-1.828571 0.585143-3.657143 0.530286-5.467429-0.128-4.059429-1.316571-6.985143-6.290286-8.192-5.449143-1.316571-10.605714-3.894857-15.798857-6.107428-3.657143-1.572571-4.790857-4.278857-4.022857-8.228572 1.901714-9.472 3.072-19.072 5.156571-28.489143 3.894857-17.664 1.426286-33.828571-7.789714-49.938285-8.539429-14.921143-15.213714-30.902857-21.723429-46.811429-10.605714-25.874286-20.736-51.931429-26.642285-79.323429-0.457143-2.102857-0.859429-4.242286-1.499429-7.442285-10.788571 18.852571-20.937143 36.681143-27.666286 56.027428-2.797714 8.082286-5.302857 16.420571-6.473142 24.832-3.419429 24.612571 1.060571 48.402286 11.830857 70.656 9.088 18.816 20.297143 36.644571 30.098285 55.149715 4.443429 8.374857 8.649143 17.078857 11.245715 26.093714 3.602286 12.525714-1.042286 22.125714-12.982857 27.958857-7.698286 3.748571-16.109714 6.217143-24.356572 8.777143-12.324571 3.84-25.142857 6.454857-37.12 11.081143-30.226286 11.702857-44.964571 34.468571-43.355428 65.773714 0.914286 17.938286 7.314286 34.651429 12.745142 51.620571 4.205714 13.092571 8.667429 26.294857 10.843429 39.789715 2.505143 15.506286-4.754286 23.625143-20.827429 26.88-3.547429 0.731429-7.168 1.115429-11.300571 1.755428 18.651429 12.598857 55.771429 6.875429 65.462857-21.942857 3.108571-9.216 4.150857-18.651429 2.304-28.086857-2.633143-13.348571-6.326857-26.514286-9.124571-39.826286-4.278857-20.406857 0.585143-31.926857 19.693714-41.417143 13.696-6.802286 28.562286-11.410286 42.916571-16.969142 1.024-0.402286 2.157714-0.548571 3.145143-0.768-9.088 5.284571-18.578286 9.965714-27.117714 15.908571-24.393143 16.987429-33.737143 40.283429-28.196571 68.681143 2.377143 12.288 6.692571 24.192 9.837714 36.352 5.668571 21.924571-0.877714 36.973714-20.937143 48.64-2.614857 1.499429-5.284571 2.925714-7.771429 4.297143h31.634286c0.256-3.913143 0.475429-7.094857 0.658286-10.258286 1.956571-33.627429 4.022857-67.236571 5.833143-100.864 0.841143-15.817143 6.034286-29.915429 16.512-42.130286a54.4 54.4 0 0 1 34.194285-18.944c19.273143-2.889143 37.851429 0.621714 56.100572 6.089143z m-4.973714-39.899428c-2.340571 6.875429-18.925714 14.701714-31.707429 15.835428l31.707429-15.835428z" fill="#FF7E7E" p-id="32611"></path></svg>